<svg id="Capa_1" enable-background="new 0 0 512 512" height="15" viewBox="0 0 512 512" width="15" xmlns="http://www.w3.org/2000/svg"><path d="m95.72 178.319c26.411 0 47.898-21.487 47.898-47.898s-21.487-47.898-47.898-47.898-47.897 21.487-47.897 47.898 21.485 47.898 47.897 47.898zm0-80.796c18.141 0 32.898 14.758 32.898 32.898s-14.758 32.898-32.898 32.898-32.897-14.758-32.897-32.898c-.001-18.14 14.757-32.898 32.897-32.898z"/><path d="m154.637 130.421c0 26.411 21.487 47.898 47.898 47.898s47.897-21.487 47.897-47.898-21.486-47.898-47.897-47.898-47.898 21.487-47.898 47.898zm80.795 0c0 18.14-14.758 32.898-32.897 32.898-18.141 0-32.898-14.758-32.898-32.898s14.758-32.898 32.898-32.898 32.897 14.758 32.897 32.898z"/><path d="m309.349 178.319c26.411 0 47.898-21.487 47.898-47.898s-21.487-47.898-47.898-47.898-47.898 21.487-47.898 47.898 21.487 47.898 47.898 47.898zm0-80.796c18.141 0 32.898 14.758 32.898 32.898s-14.758 32.898-32.898 32.898-32.898-14.758-32.898-32.898 14.758-32.898 32.898-32.898z"/><path d="m265.738 51.131h-210.416c-4.143 0-7.5 3.358-7.5 7.5s3.357 7.5 7.5 7.5h210.416c4.143 0 7.5-3.358 7.5-7.5s-3.357-7.5-7.5-7.5z"/><path d="m95.72 327.858c26.411 0 47.898-21.487 47.898-47.898s-21.487-47.898-47.898-47.898-47.897 21.487-47.897 47.898 21.485 47.898 47.897 47.898zm0-80.796c18.141 0 32.898 14.758 32.898 32.898s-14.758 32.898-32.898 32.898-32.897-14.758-32.897-32.898 14.757-32.898 32.897-32.898z"/><path d="m154.637 279.96c0 26.411 21.487 47.898 47.898 47.898s47.897-21.487 47.897-47.898-21.486-47.898-47.897-47.898-47.898 21.487-47.898 47.898zm80.795 0c0 18.14-14.758 32.898-32.897 32.898-18.141 0-32.898-14.758-32.898-32.898s14.758-32.898 32.898-32.898 32.897 14.758 32.897 32.898z"/><path d="m55.322 215.67h210.416c4.143 0 7.5-3.358 7.5-7.5s-3.357-7.5-7.5-7.5h-210.416c-4.143 0-7.5 3.358-7.5 7.5s3.358 7.5 7.5 7.5z"/><path d="m95.72 482.77c26.411 0 47.898-21.487 47.898-47.898s-21.487-47.898-47.898-47.898-47.897 21.487-47.897 47.898 21.485 47.898 47.897 47.898zm0-80.796c18.141 0 32.898 14.758 32.898 32.898s-14.758 32.898-32.898 32.898-32.897-14.758-32.897-32.898 14.757-32.898 32.897-32.898z"/><path d="m154.637 434.872c0 26.411 21.487 47.898 47.898 47.898s47.897-21.487 47.897-47.898-21.486-47.898-47.897-47.898-47.898 21.487-47.898 47.898zm80.795 0c0 18.14-14.758 32.898-32.897 32.898-18.141 0-32.898-14.758-32.898-32.898s14.758-32.898 32.898-32.898 32.897 14.758 32.897 32.898z"/><path d="m309.349 482.77c26.411 0 47.898-21.487 47.898-47.898s-21.487-47.898-47.898-47.898-47.898 21.487-47.898 47.898 21.487 47.898 47.898 47.898zm0-80.796c18.141 0 32.898 14.758 32.898 32.898s-14.758 32.898-32.898 32.898-32.898-14.758-32.898-32.898 14.758-32.898 32.898-32.898z"/><path d="m55.322 370.582h210.416c4.143 0 7.5-3.358 7.5-7.5s-3.357-7.5-7.5-7.5h-210.416c-4.143 0-7.5 3.358-7.5 7.5s3.358 7.5 7.5 7.5z"/><path d="m483.829 92.191 4.659-11.685c4.17-10.459-.946-22.36-11.406-26.531l-20.323-8.104c-5.068-2.021-10.62-1.947-15.632.21-5.009 2.155-8.88 6.131-10.899 11.195l-9.289 23.297c-3.773 1.888-7.142 4.669-9.744 8.273-2.105 2.911-4.218 5.957-6.333 9.115v-67.181c0-16.972-13.813-30.78-30.79-30.78h-343.081c-16.972 0-30.779 13.808-30.779 30.78v374.464c0 4.142 3.357 7.5 7.5 7.5s7.5-3.358 7.5-7.5v-374.464c0-8.701 7.078-15.78 15.779-15.78h343.08c8.707 0 15.79 7.079 15.79 15.78v91.488c-13.252 23.163-26.204 50.286-37.786 79.334-5.335 13.378-10.175 26.673-14.471 39.666-8.106-5.937-17.922-9.208-28.253-9.208-26.412 0-47.9 21.488-47.9 47.9s21.488 47.9 47.9 47.9c2.582 0 5.13-.202 7.634-.602-4.358 35.705.523 56.638 14.54 62.229 2.252.897 4.604 1.345 7.057 1.345 13.45-.001 29.893-13.475 49.007-40.202.757-1.058 1.514-2.138 2.272-3.228v133.818c0 8.701-7.083 15.78-15.79 15.78h-343.08c-8.701 0-15.779-7.079-15.779-15.78v-45.976c0-4.142-3.357-7.5-7.5-7.5s-7.5 3.358-7.5 7.5v45.976c0 16.972 13.808 30.78 30.779 30.78h343.08c16.978 0 30.79-13.808 30.79-30.78v-157.312c14.388-24.365 28.527-53.551 41.027-84.902 8.966-22.493 16.55-44.712 22.544-66.038 1.12-3.988-1.204-8.129-5.191-9.249s-8.129 1.203-9.25 5.191c-5.851 20.821-13.266 42.536-22.036 64.542-6.995 17.544-14.5 34.368-22.26 49.988l-61.919-24.688c5.118-16.678 11.234-34.045 18.232-51.595 17.325-43.453 37.688-82.348 57.343-109.526 3.187-4.413 8.96-6.081 14.042-4.055l20.913 8.341c5.081 2.024 8.124 7.208 7.401 12.608-1.064 7.955-2.601 16.605-4.567 25.711-.874 4.049 1.699 8.04 5.748 8.914 4.04.875 8.039-1.698 8.914-5.747 2.051-9.494 3.656-18.541 4.772-26.888.439-3.279.248-6.517-.462-9.596 11.634 5.397 17.233 15.033 16.632 28.768-.852 19.371-19.019 54.82-35.047 86.096-19.627 38.297-31.502 62.44-28.479 75.68.794 3.477 3.884 5.832 7.305 5.832.553 0 1.114-.062 1.677-.19 4.038-.922 6.563-4.943 5.642-8.981-.354-1.548-.418-6.917 6.597-23.295 5.198-12.138 12.684-26.743 20.607-42.206 17.546-34.236 35.688-69.637 36.685-92.279.912-20.825-9.158-36.537-27.902-44.153zm-207.378 187.769c0-18.141 14.759-32.9 32.9-32.9 8.864 0 17.185 3.498 23.348 9.708-5.852 19.361-10.358 37.793-13.306 54.528-3.222 1.035-6.584 1.564-10.042 1.564-18.141 0-32.9-14.759-32.9-32.9zm126.366 16.886c-9.035 17.037-18.306 32.302-27.429 45.059-21.533 30.11-34.486 35.179-38.308 33.649-3.835-1.53-9.741-14.111-4.648-50.78 2.157-15.528 5.949-32.991 11.112-51.561zm40.133-217.202c-1.617-.645-3.266-1.106-4.925-1.424l6.135-15.388c.536-1.344 1.563-2.399 2.894-2.971 1.329-.572 2.803-.592 4.149-.056l20.322 8.104c2.777 1.107 4.136 4.266 3.028 7.042l-6.136 15.39c-1.424-.911-2.939-1.711-4.558-2.356z"/></svg>